# Wavefront OBJ file automatically generated by Tiled2Unity

# Vertices (Count = 279)
v -4140 -840 0
v -4200 -840 0
v -4200 -780 0
v -4140 -780 0
v -4260 -840 0
v -4260 -780 0
v -4320 -840 0
v -4320 -780 0
v -4380 -840 0
v -4380 -780 0
v -4440 -840 0
v -4440 -780 0
v -4500 -840 0
v -4500 -780 0
v 0 -900 0
v -60 -900 0
v -60 -840 0
v 0 -840 0
v -120 -900 0
v -120 -840 0
v -180 -900 0
v -180 -840 0
v -240 -900 0
v -240 -840 0
v -300 -900 0
v -300 -840 0
v -360 -900 0
v -360 -840 0
v -420 -900 0
v -420 -840 0
v -480 -900 0
v -480 -840 0
v -540 -900 0
v -540 -840 0
v -600 -900 0
v -600 -840 0
v -660 -900 0
v -660 -840 0
v -720 -900 0
v -720 -840 0
v -780 -900 0
v -780 -840 0
v -840 -900 0
v -840 -840 0
v -900 -900 0
v -900 -840 0
v -960 -900 0
v -960 -840 0
v -1020 -900 0
v -1020 -840 0
v -1080 -900 0
v -1080 -840 0
v -1140 -900 0
v -1140 -840 0
v -1200 -900 0
v -1200 -840 0
v -1260 -900 0
v -1260 -840 0
v -1320 -900 0
v -1320 -840 0
v -1380 -900 0
v -1380 -840 0
v -1440 -900 0
v -1440 -840 0
v -1500 -900 0
v -1500 -840 0
v -1560 -900 0
v -1560 -840 0
v -1620 -900 0
v -1620 -840 0
v -1680 -900 0
v -1680 -840 0
v -1740 -900 0
v -1740 -840 0
v -1800 -900 0
v -1800 -840 0
v -1860 -900 0
v -1860 -840 0
v -1920 -900 0
v -1920 -840 0
v -1980 -900 0
v -1980 -840 0
v -2040 -900 0
v -2040 -840 0
v -2100 -900 0
v -2100 -840 0
v -2160 -900 0
v -2160 -840 0
v -2220 -900 0
v -2220 -840 0
v -2280 -900 0
v -2280 -840 0
v -2340 -900 0
v -2340 -840 0
v -2400 -900 0
v -2400 -840 0
v -2460 -900 0
v -2460 -840 0
v -2520 -900 0
v -2520 -840 0
v -2580 -900 0
v -2580 -840 0
v -2640 -900 0
v -2640 -840 0
v -2700 -900 0
v -2700 -840 0
v -2760 -900 0
v -2760 -840 0
v -2820 -900 0
v -2820 -840 0
v -2880 -900 0
v -2880 -840 0
v -2940 -900 0
v -2940 -840 0
v -3000 -900 0
v -3000 -840 0
v -3060 -900 0
v -3060 -840 0
v -3120 -900 0
v -3120 -840 0
v -3180 -900 0
v -3180 -840 0
v -3240 -900 0
v -3240 -840 0
v -3300 -900 0
v -3300 -840 0
v -3360 -900 0
v -3360 -840 0
v -3420 -900 0
v -3420 -840 0
v -3480 -900 0
v -3480 -840 0
v -3540 -900 0
v -3540 -840 0
v -3600 -900 0
v -3600 -840 0
v -3660 -900 0
v -3660 -840 0
v -3720 -900 0
v -3720 -840 0
v -3780 -900 0
v -3780 -840 0
v -3840 -900 0
v -3840 -840 0
v -3900 -900 0
v -3900 -840 0
v -3960 -900 0
v -3960 -840 0
v -4020 -900 0
v -4020 -840 0
v -4080 -900 0
v -4080 -840 0
v -4140 -900 0
v -4200 -900 0
v -4260 -900 0
v -4320 -900 0
v -4380 -900 0
v -4440 -900 0
v -4500 -900 0
v -4560 -900 0
v -4560 -840 0
v -4620 -900 0
v -4620 -840 0
v -4680 -900 0
v -4680 -840 0
v -4740 -900 0
v -4740 -840 0
v -4800 -900 0
v -4800 -840 0
v -4860 -900 0
v -4860 -840 0
v -4920 -900 0
v -4920 -840 0
v -4980 -900 0
v -4980 -840 0
v -5040 -900 0
v -5040 -840 0
v -5100 -900 0
v -5100 -840 0
v -5160 -900 0
v -5160 -840 0
v -5220 -900 0
v -5220 -840 0
v -5280 -900 0
v -5280 -840 0
v -5340 -900 0
v -5340 -840 0
v -5400 -900 0
v -5400 -840 0
v -5460 -900 0
v -5460 -840 0
v -5520 -900 0
v -5520 -840 0
v -60 -780 0
v 0 -780 0
v -120 -780 0
v -180 -780 0
v -240 -780 0
v -300 -780 0
v -360 -780 0
v -420 -780 0
v -480 -780 0
v -540 -780 0
v -600 -780 0
v -660 -780 0
v -720 -780 0
v -780 -780 0
v -840 -780 0
v -900 -780 0
v -960 -780 0
v -1020 -780 0
v -1080 -780 0
v -1140 -780 0
v -1200 -780 0
v -1260 -780 0
v -1320 -780 0
v -1380 -780 0
v -1440 -780 0
v -1500 -780 0
v -1560 -780 0
v -1620 -780 0
v -1680 -780 0
v -1740 -780 0
v -1800 -780 0
v -1860 -780 0
v -1920 -780 0
v -1980 -780 0
v -2040 -780 0
v -2100 -780 0
v -2160 -780 0
v -2220 -780 0
v -2280 -780 0
v -2340 -780 0
v -2400 -780 0
v -2460 -780 0
v -2520 -780 0
v -2580 -780 0
v -2640 -780 0
v -2700 -780 0
v -2760 -780 0
v -2820 -780 0
v -2880 -780 0
v -2940 -780 0
v -3000 -780 0
v -3060 -780 0
v -3120 -780 0
v -3180 -780 0
v -3240 -780 0
v -3300 -780 0
v -3360 -780 0
v -3420 -780 0
v -3480 -780 0
v -3540 -780 0
v -3600 -780 0
v -3660 -780 0
v -3720 -780 0
v -3780 -780 0
v -3840 -780 0
v -3900 -780 0
v -3960 -780 0
v -4020 -780 0
v -4080 -780 0
v -4560 -780 0
v -4620 -780 0
v -4680 -780 0
v -4740 -780 0
v -4800 -780 0
v -4860 -780 0
v -4920 -780 0
v -4980 -780 0
v -5040 -780 0
v -5100 -780 0
v -5160 -780 0
v -5220 -780 0
v -5280 -780 0
v -5340 -780 0
v -5400 -780 0
v -5460 -780 0
v -5520 -780 0

# Texture Coorindates (Count = 8)
vt 0.6667888 0.7501221
vt 0.7221001 0.7501221
vt 0.7221001 0.8748779
vt 0.6667888 0.8748779
vt 0.6112332 0.8751221
vt 0.6665446 0.8751221
vt 0.6665446 0.9998779
vt 0.6112332 0.9998779

# Normal
vn 0 0 -1

# Groups (Count = 2)
g mesh_[00]_[00]
f  1/1/1  2/2/1  3/3/1  4/4/1 
f  2/1/1  5/2/1  6/3/1  3/4/1 
f  5/1/1  7/2/1  8/3/1  6/4/1 
f  7/1/1  9/2/1  10/3/1  8/4/1 
f  9/1/1  11/2/1  12/3/1  10/4/1 
f  11/1/1  13/2/1  14/3/1  12/4/1 
f  15/1/1  16/2/1  17/3/1  18/4/1 
f  16/1/1  19/2/1  20/3/1  17/4/1 
f  19/1/1  21/2/1  22/3/1  20/4/1 
f  21/1/1  23/2/1  24/3/1  22/4/1 
f  23/1/1  25/2/1  26/3/1  24/4/1 
f  25/1/1  27/2/1  28/3/1  26/4/1 
f  27/1/1  29/2/1  30/3/1  28/4/1 
f  29/1/1  31/2/1  32/3/1  30/4/1 
f  31/1/1  33/2/1  34/3/1  32/4/1 
f  33/1/1  35/2/1  36/3/1  34/4/1 
f  35/1/1  37/2/1  38/3/1  36/4/1 
f  37/1/1  39/2/1  40/3/1  38/4/1 
f  39/1/1  41/2/1  42/3/1  40/4/1 
f  41/1/1  43/2/1  44/3/1  42/4/1 
f  43/1/1  45/2/1  46/3/1  44/4/1 
f  45/1/1  47/2/1  48/3/1  46/4/1 
f  47/1/1  49/2/1  50/3/1  48/4/1 
f  49/1/1  51/2/1  52/3/1  50/4/1 
f  51/1/1  53/2/1  54/3/1  52/4/1 
f  53/1/1  55/2/1  56/3/1  54/4/1 
f  55/1/1  57/2/1  58/3/1  56/4/1 
f  57/1/1  59/2/1  60/3/1  58/4/1 
f  59/1/1  61/2/1  62/3/1  60/4/1 
f  61/1/1  63/2/1  64/3/1  62/4/1 
f  63/1/1  65/2/1  66/3/1  64/4/1 
f  65/1/1  67/2/1  68/3/1  66/4/1 
f  67/1/1  69/2/1  70/3/1  68/4/1 
f  69/1/1  71/2/1  72/3/1  70/4/1 
f  71/1/1  73/2/1  74/3/1  72/4/1 
f  73/1/1  75/2/1  76/3/1  74/4/1 
f  75/1/1  77/2/1  78/3/1  76/4/1 
f  77/1/1  79/2/1  80/3/1  78/4/1 
f  79/1/1  81/2/1  82/3/1  80/4/1 
f  81/1/1  83/2/1  84/3/1  82/4/1 
f  83/1/1  85/2/1  86/3/1  84/4/1 
f  85/1/1  87/2/1  88/3/1  86/4/1 
f  87/1/1  89/2/1  90/3/1  88/4/1 
f  89/1/1  91/2/1  92/3/1  90/4/1 
f  91/1/1  93/2/1  94/3/1  92/4/1 
f  93/1/1  95/2/1  96/3/1  94/4/1 
f  95/1/1  97/2/1  98/3/1  96/4/1 
f  97/1/1  99/2/1  100/3/1  98/4/1 
f  99/1/1  101/2/1  102/3/1  100/4/1 
f  101/1/1  103/2/1  104/3/1  102/4/1 
f  103/1/1  105/2/1  106/3/1  104/4/1 
f  105/1/1  107/2/1  108/3/1  106/4/1 
f  107/1/1  109/2/1  110/3/1  108/4/1 
f  109/1/1  111/2/1  112/3/1  110/4/1 
f  111/1/1  113/2/1  114/3/1  112/4/1 
f  113/1/1  115/2/1  116/3/1  114/4/1 
f  115/1/1  117/2/1  118/3/1  116/4/1 
f  117/1/1  119/2/1  120/3/1  118/4/1 
f  119/1/1  121/2/1  122/3/1  120/4/1 
f  121/1/1  123/2/1  124/3/1  122/4/1 
f  123/1/1  125/2/1  126/3/1  124/4/1 
f  125/1/1  127/2/1  128/3/1  126/4/1 
f  127/1/1  129/2/1  130/3/1  128/4/1 
f  129/1/1  131/2/1  132/3/1  130/4/1 
f  131/1/1  133/2/1  134/3/1  132/4/1 
f  133/1/1  135/2/1  136/3/1  134/4/1 
f  135/1/1  137/2/1  138/3/1  136/4/1 
f  137/1/1  139/2/1  140/3/1  138/4/1 
f  139/1/1  141/2/1  142/3/1  140/4/1 
f  141/1/1  143/2/1  144/3/1  142/4/1 
f  143/1/1  145/2/1  146/3/1  144/4/1 
f  145/1/1  147/2/1  148/3/1  146/4/1 
f  147/1/1  149/2/1  150/3/1  148/4/1 
f  149/1/1  151/2/1  152/3/1  150/4/1 
f  151/1/1  153/2/1  1/3/1  152/4/1 
f  153/1/1  154/2/1  2/3/1  1/4/1 
f  154/1/1  155/2/1  5/3/1  2/4/1 
f  155/1/1  156/2/1  7/3/1  5/4/1 
f  156/1/1  157/2/1  9/3/1  7/4/1 
f  157/1/1  158/2/1  11/3/1  9/4/1 
f  158/1/1  159/2/1  13/3/1  11/4/1 
f  159/1/1  160/2/1  161/3/1  13/4/1 
f  160/1/1  162/2/1  163/3/1  161/4/1 
f  162/1/1  164/2/1  165/3/1  163/4/1 
f  164/1/1  166/2/1  167/3/1  165/4/1 
f  166/1/1  168/2/1  169/3/1  167/4/1 
f  168/1/1  170/2/1  171/3/1  169/4/1 
f  170/1/1  172/2/1  173/3/1  171/4/1 
f  172/1/1  174/2/1  175/3/1  173/4/1 
f  174/1/1  176/2/1  177/3/1  175/4/1 
f  176/1/1  178/2/1  179/3/1  177/4/1 
f  178/1/1  180/2/1  181/3/1  179/4/1 
f  180/1/1  182/2/1  183/3/1  181/4/1 
f  182/1/1  184/2/1  185/3/1  183/4/1 
f  184/1/1  186/2/1  187/3/1  185/4/1 
f  186/1/1  188/2/1  189/3/1  187/4/1 
f  188/1/1  190/2/1  191/3/1  189/4/1 
f  190/1/1  192/2/1  193/3/1  191/4/1 
g mesh_[01]_[00]
f  18/5/1  17/6/1  194/7/1  195/8/1 
f  17/5/1  20/6/1  196/7/1  194/8/1 
f  20/5/1  22/6/1  197/7/1  196/8/1 
f  22/5/1  24/6/1  198/7/1  197/8/1 
f  24/5/1  26/6/1  199/7/1  198/8/1 
f  26/5/1  28/6/1  200/7/1  199/8/1 
f  28/5/1  30/6/1  201/7/1  200/8/1 
f  30/5/1  32/6/1  202/7/1  201/8/1 
f  32/5/1  34/6/1  203/7/1  202/8/1 
f  34/5/1  36/6/1  204/7/1  203/8/1 
f  36/5/1  38/6/1  205/7/1  204/8/1 
f  38/5/1  40/6/1  206/7/1  205/8/1 
f  40/5/1  42/6/1  207/7/1  206/8/1 
f  42/5/1  44/6/1  208/7/1  207/8/1 
f  44/5/1  46/6/1  209/7/1  208/8/1 
f  46/5/1  48/6/1  210/7/1  209/8/1 
f  48/5/1  50/6/1  211/7/1  210/8/1 
f  50/5/1  52/6/1  212/7/1  211/8/1 
f  52/5/1  54/6/1  213/7/1  212/8/1 
f  54/5/1  56/6/1  214/7/1  213/8/1 
f  56/5/1  58/6/1  215/7/1  214/8/1 
f  58/5/1  60/6/1  216/7/1  215/8/1 
f  60/5/1  62/6/1  217/7/1  216/8/1 
f  62/5/1  64/6/1  218/7/1  217/8/1 
f  64/5/1  66/6/1  219/7/1  218/8/1 
f  66/5/1  68/6/1  220/7/1  219/8/1 
f  68/5/1  70/6/1  221/7/1  220/8/1 
f  70/5/1  72/6/1  222/7/1  221/8/1 
f  72/5/1  74/6/1  223/7/1  222/8/1 
f  74/5/1  76/6/1  224/7/1  223/8/1 
f  76/5/1  78/6/1  225/7/1  224/8/1 
f  78/5/1  80/6/1  226/7/1  225/8/1 
f  80/5/1  82/6/1  227/7/1  226/8/1 
f  82/5/1  84/6/1  228/7/1  227/8/1 
f  84/5/1  86/6/1  229/7/1  228/8/1 
f  86/5/1  88/6/1  230/7/1  229/8/1 
f  88/5/1  90/6/1  231/7/1  230/8/1 
f  90/5/1  92/6/1  232/7/1  231/8/1 
f  92/5/1  94/6/1  233/7/1  232/8/1 
f  94/5/1  96/6/1  234/7/1  233/8/1 
f  96/5/1  98/6/1  235/7/1  234/8/1 
f  98/5/1  100/6/1  236/7/1  235/8/1 
f  100/5/1  102/6/1  237/7/1  236/8/1 
f  102/5/1  104/6/1  238/7/1  237/8/1 
f  104/5/1  106/6/1  239/7/1  238/8/1 
f  106/5/1  108/6/1  240/7/1  239/8/1 
f  108/5/1  110/6/1  241/7/1  240/8/1 
f  110/5/1  112/6/1  242/7/1  241/8/1 
f  112/5/1  114/6/1  243/7/1  242/8/1 
f  114/5/1  116/6/1  244/7/1  243/8/1 
f  116/5/1  118/6/1  245/7/1  244/8/1 
f  118/5/1  120/6/1  246/7/1  245/8/1 
f  120/5/1  122/6/1  247/7/1  246/8/1 
f  122/5/1  124/6/1  248/7/1  247/8/1 
f  124/5/1  126/6/1  249/7/1  248/8/1 
f  126/5/1  128/6/1  250/7/1  249/8/1 
f  128/5/1  130/6/1  251/7/1  250/8/1 
f  130/5/1  132/6/1  252/7/1  251/8/1 
f  132/5/1  134/6/1  253/7/1  252/8/1 
f  134/5/1  136/6/1  254/7/1  253/8/1 
f  136/5/1  138/6/1  255/7/1  254/8/1 
f  138/5/1  140/6/1  256/7/1  255/8/1 
f  140/5/1  142/6/1  257/7/1  256/8/1 
f  142/5/1  144/6/1  258/7/1  257/8/1 
f  144/5/1  146/6/1  259/7/1  258/8/1 
f  146/5/1  148/6/1  260/7/1  259/8/1 
f  148/5/1  150/6/1  261/7/1  260/8/1 
f  150/5/1  152/6/1  262/7/1  261/8/1 
f  152/5/1  1/6/1  4/7/1  262/8/1 
f  1/5/1  2/6/1  3/7/1  4/8/1 
f  2/5/1  5/6/1  6/7/1  3/8/1 
f  5/5/1  7/6/1  8/7/1  6/8/1 
f  7/5/1  9/6/1  10/7/1  8/8/1 
f  9/5/1  11/6/1  12/7/1  10/8/1 
f  11/5/1  13/6/1  14/7/1  12/8/1 
f  13/5/1  161/6/1  263/7/1  14/8/1 
f  161/5/1  163/6/1  264/7/1  263/8/1 
f  163/5/1  165/6/1  265/7/1  264/8/1 
f  165/5/1  167/6/1  266/7/1  265/8/1 
f  167/5/1  169/6/1  267/7/1  266/8/1 
f  169/5/1  171/6/1  268/7/1  267/8/1 
f  171/5/1  173/6/1  269/7/1  268/8/1 
f  173/5/1  175/6/1  270/7/1  269/8/1 
f  175/5/1  177/6/1  271/7/1  270/8/1 
f  177/5/1  179/6/1  272/7/1  271/8/1 
f  179/5/1  181/6/1  273/7/1  272/8/1 
f  181/5/1  183/6/1  274/7/1  273/8/1 
f  183/5/1  185/6/1  275/7/1  274/8/1 
f  185/5/1  187/6/1  276/7/1  275/8/1 
f  187/5/1  189/6/1  277/7/1  276/8/1 
f  189/5/1  191/6/1  278/7/1  277/8/1 
f  191/5/1  193/6/1  279/7/1  278/8/1 
